<mxfile host="app.diagrams.net" modified="2020-10-21T09:12:58.066Z" agent="5.0 (Windows NT 10.0; Win64; x64) AppleWebKit/537.36 (KHTML, like Gecko) Chrome/86.0.4240.75 Safari/537.36" etag="MjDlTnqNIkp7XJ3q3F0N" version="13.8.1" type="github">
  <diagram id="MOBFQ8YPR3JpmQWo_C37" name="Page-1">
    <mxGraphModel dx="2222" dy="794" grid="0" gridSize="10" guides="1" tooltips="1" connect="1" arrows="1" fold="0" page="0" pageScale="1" pageWidth="827" pageHeight="1169" math="0" shadow="0">
      <root>
        <mxCell id="0" />
        <mxCell id="1" parent="0" />
        <mxCell id="Er8-8Sgkyutona7fchdq-1" value="&lt;font style=&quot;font-size: 14px&quot;&gt;&lt;b&gt;Activité&lt;/b&gt;&lt;/font&gt;" style="rounded=1;whiteSpace=wrap;html=1;fillColor=#dae8fc;strokeColor=#6c8ebf;" parent="1" vertex="1">
          <mxGeometry x="360" y="160" width="80" height="40" as="geometry" />
        </mxCell>
        <mxCell id="Er8-8Sgkyutona7fchdq-3" value="&lt;font style=&quot;font-size: 14px&quot;&gt;&lt;b&gt;Client&lt;/b&gt;&lt;/font&gt;" style="rounded=1;whiteSpace=wrap;html=1;fillColor=#dae8fc;strokeColor=#6c8ebf;" parent="1" vertex="1">
          <mxGeometry x="240" y="160" width="80" height="40" as="geometry" />
        </mxCell>
        <mxCell id="Er8-8Sgkyutona7fchdq-4" value="&lt;font style=&quot;font-size: 14px&quot;&gt;&lt;b&gt;Skill-category&lt;/b&gt;&lt;/font&gt;" style="rounded=1;whiteSpace=wrap;html=1;fillColor=#dae8fc;strokeColor=#6c8ebf;" parent="1" vertex="1">
          <mxGeometry x="600" y="160" width="80" height="40" as="geometry" />
        </mxCell>
        <mxCell id="Er8-8Sgkyutona7fchdq-5" value="&lt;font style=&quot;font-size: 14px&quot;&gt;&lt;b&gt;Client-Prod&lt;/b&gt;&lt;/font&gt;" style="rounded=1;whiteSpace=wrap;html=1;fillColor=#dae8fc;strokeColor=#6c8ebf;" parent="1" vertex="1">
          <mxGeometry x="720" y="160" width="80" height="40" as="geometry" />
        </mxCell>
        <mxCell id="Er8-8Sgkyutona7fchdq-10" value="" style="shape=curlyBracket;whiteSpace=wrap;html=1;rounded=1;" parent="1" vertex="1">
          <mxGeometry x="200" y="150" width="20" height="60" as="geometry" />
        </mxCell>
        <mxCell id="Er8-8Sgkyutona7fchdq-11" value="&lt;font color=&quot;#ff0000&quot; style=&quot;font-size: 14px&quot;&gt;&lt;b&gt;&amp;nbsp; &amp;nbsp; &amp;nbsp; &amp;nbsp; &amp;nbsp; &amp;nbsp; &amp;nbsp; &amp;nbsp; &amp;nbsp; &amp;nbsp; &amp;nbsp; &amp;nbsp; &amp;nbsp; &amp;nbsp; &amp;nbsp; &amp;nbsp; &amp;nbsp; &amp;nbsp; &amp;nbsp; &amp;nbsp; &amp;nbsp; &amp;nbsp; &amp;nbsp; &amp;nbsp; &amp;nbsp; Composants Parents&lt;/b&gt;&lt;/font&gt;" style="text;html=1;align=center;verticalAlign=middle;resizable=0;points=[];autosize=1;" parent="1" vertex="1">
          <mxGeometry x="-145" y="170.5" width="345" height="19" as="geometry" />
        </mxCell>
        <mxCell id="Er8-8Sgkyutona7fchdq-57" value="" style="edgeStyle=orthogonalEdgeStyle;curved=0;rounded=1;sketch=0;orthogonalLoop=1;jettySize=auto;html=1;" parent="1" source="Er8-8Sgkyutona7fchdq-2" target="Er8-8Sgkyutona7fchdq-19" edge="1">
          <mxGeometry relative="1" as="geometry">
            <Array as="points">
              <mxPoint x="523" y="235" />
              <mxPoint x="523" y="235" />
            </Array>
          </mxGeometry>
        </mxCell>
        <mxCell id="Er8-8Sgkyutona7fchdq-13" value="" style="shape=partialRectangle;whiteSpace=wrap;html=1;left=0;right=0;fillColor=none;strokeColor=#FF0000;" parent="1" vertex="1">
          <mxGeometry x="238" y="150" width="560" height="60" as="geometry" />
        </mxCell>
        <mxCell id="Er8-8Sgkyutona7fchdq-58" value="" style="edgeStyle=orthogonalEdgeStyle;curved=0;rounded=1;sketch=0;orthogonalLoop=1;jettySize=auto;html=1;" parent="1" source="Er8-8Sgkyutona7fchdq-19" target="Er8-8Sgkyutona7fchdq-21" edge="1">
          <mxGeometry relative="1" as="geometry">
            <Array as="points">
              <mxPoint x="520" y="380" />
              <mxPoint x="520" y="380" />
            </Array>
          </mxGeometry>
        </mxCell>
        <mxCell id="Er8-8Sgkyutona7fchdq-19" value="&lt;font style=&quot;font-size: 13px&quot;&gt;&lt;b&gt;&lt;font color=&quot;#4d9900&quot; style=&quot;font-size: 13px&quot;&gt;Transmettre le service au composant générique&lt;br&gt;&lt;/font&gt;&lt;br&gt;&amp;lt;app-generic-model &lt;font color=&quot;#ff0000&quot;&gt;[&lt;/font&gt;&lt;font color=&quot;#cc0000&quot; style=&quot;font-size: 13px&quot;&gt;crudTableService]=&quot;this.tableService&quot;&lt;/font&gt;&amp;gt;&amp;lt;/app-generic-model&amp;gt;&lt;/b&gt;&lt;/font&gt;" style="rounded=1;whiteSpace=wrap;html=1;strokeColor=#d6b656;fillColor=#fff2cc;" parent="1" vertex="1">
          <mxGeometry x="275" y="270" width="495" height="66" as="geometry" />
        </mxCell>
        <mxCell id="Er8-8Sgkyutona7fchdq-21" value="&lt;font&gt;&lt;font color=&quot;#0066cc&quot; style=&quot;font-size: 17px&quot;&gt;&lt;b&gt;Composant générique&lt;br&gt;&lt;br&gt;&lt;/b&gt;&lt;/font&gt;&lt;font style=&quot;font-size: 14px&quot; color=&quot;#4d9900&quot;&gt;&lt;b&gt;propriété personnalisée&lt;br&gt;&lt;br&gt;&lt;/b&gt;&lt;/font&gt;&lt;font color=&quot;#cc0000&quot;&gt;&lt;b&gt;@Input() crudTableService&lt;/b&gt;&lt;br&gt;&lt;/font&gt;&lt;br&gt;&lt;/font&gt;" style="rounded=1;whiteSpace=wrap;html=1;sketch=0;strokeColor=#36393d;fillColor=#cce5ff;" parent="1" vertex="1">
          <mxGeometry x="390" y="390" width="250" height="108" as="geometry" />
        </mxCell>
        <mxCell id="Er8-8Sgkyutona7fchdq-23" value="" style="endArrow=classic;html=1;" parent="1" edge="1">
          <mxGeometry width="50" height="50" relative="1" as="geometry">
            <mxPoint x="519.5" y="417" as="sourcePoint" />
            <mxPoint x="519.5" y="437" as="targetPoint" />
            <Array as="points">
              <mxPoint x="519.5" y="427" />
            </Array>
          </mxGeometry>
        </mxCell>
        <mxCell id="Er8-8Sgkyutona7fchdq-25" value="" style="shape=curlyBracket;whiteSpace=wrap;html=1;rounded=1;" parent="1" vertex="1">
          <mxGeometry x="357" y="390" width="20" height="100" as="geometry" />
        </mxCell>
        <mxCell id="Er8-8Sgkyutona7fchdq-26" value="&lt;span style=&quot;color: rgb(255 , 0 , 0)&quot;&gt;&lt;font style=&quot;font-size: 14px&quot;&gt;&lt;b&gt;&amp;nbsp; &amp;nbsp; &amp;nbsp; &amp;nbsp; &amp;nbsp; &amp;nbsp; &amp;nbsp; &amp;nbsp; &amp;nbsp; &amp;nbsp; &amp;nbsp; &amp;nbsp; &amp;nbsp; &amp;nbsp; &amp;nbsp; &amp;nbsp; &amp;nbsp; &amp;nbsp; &amp;nbsp; &amp;nbsp; &amp;nbsp; &amp;nbsp; &amp;nbsp; &amp;nbsp; &amp;nbsp; Composant fils&lt;/b&gt;&lt;/font&gt;&lt;/span&gt;" style="text;html=1;align=center;verticalAlign=middle;resizable=0;points=[];autosize=1;" parent="1" vertex="1">
          <mxGeometry x="51" y="427" width="306" height="19" as="geometry" />
        </mxCell>
        <mxCell id="Er8-8Sgkyutona7fchdq-28" value="" style="edgeStyle=elbowEdgeStyle;elbow=horizontal;endArrow=classic;html=1;exitX=0;exitY=0.5;exitDx=0;exitDy=0;" parent="1" source="Er8-8Sgkyutona7fchdq-13" edge="1">
          <mxGeometry width="50" height="50" relative="1" as="geometry">
            <mxPoint x="240" y="220" as="sourcePoint" />
            <mxPoint x="161" y="280" as="targetPoint" />
            <Array as="points">
              <mxPoint x="230" y="180" />
              <mxPoint x="230" y="230" />
              <mxPoint x="240" y="250" />
              <mxPoint x="251" y="260" />
              <mxPoint x="221" y="230" />
              <mxPoint x="81" y="260" />
              <mxPoint x="131" y="280" />
              <mxPoint x="181" y="270" />
              <mxPoint x="231" y="290" />
            </Array>
          </mxGeometry>
        </mxCell>
        <mxCell id="Er8-8Sgkyutona7fchdq-35" value="" style="endArrow=none;html=1;" parent="1" edge="1">
          <mxGeometry width="50" height="50" relative="1" as="geometry">
            <mxPoint x="160" y="320" as="sourcePoint" />
            <mxPoint x="160" y="240" as="targetPoint" />
          </mxGeometry>
        </mxCell>
        <mxCell id="Er8-8Sgkyutona7fchdq-36" value="" style="endArrow=classic;html=1;" parent="1" edge="1">
          <mxGeometry width="50" height="50" relative="1" as="geometry">
            <mxPoint x="160" y="241" as="sourcePoint" />
            <mxPoint x="122" y="241" as="targetPoint" />
          </mxGeometry>
        </mxCell>
        <mxCell id="Er8-8Sgkyutona7fchdq-37" value="" style="endArrow=classic;html=1;" parent="1" edge="1">
          <mxGeometry width="50" height="50" relative="1" as="geometry">
            <mxPoint x="160" y="319" as="sourcePoint" />
            <mxPoint x="122" y="319" as="targetPoint" />
          </mxGeometry>
        </mxCell>
        <mxCell id="Er8-8Sgkyutona7fchdq-42" value="&lt;b&gt;&lt;font style=&quot;font-size: 14px&quot;&gt;Entité&lt;/font&gt;&lt;/b&gt;" style="rounded=1;whiteSpace=wrap;html=1;sketch=0;fillColor=#b0e3e6;strokeColor=#0e8088;" parent="1" vertex="1">
          <mxGeometry x="40" y="220" width="80" height="40" as="geometry" />
        </mxCell>
        <mxCell id="Er8-8Sgkyutona7fchdq-43" value="&lt;b&gt;&lt;font style=&quot;font-size: 14px&quot;&gt;Service&lt;/font&gt;&lt;/b&gt;" style="rounded=1;whiteSpace=wrap;html=1;sketch=0;fillColor=#b0e3e6;strokeColor=#0e8088;" parent="1" vertex="1">
          <mxGeometry x="40" y="300" width="80" height="40" as="geometry" />
        </mxCell>
        <mxCell id="Er8-8Sgkyutona7fchdq-44" value="" style="endArrow=classic;html=1;" parent="1" edge="1">
          <mxGeometry width="50" height="50" relative="1" as="geometry">
            <mxPoint x="39" y="322" as="sourcePoint" />
            <mxPoint x="1" y="322" as="targetPoint" />
          </mxGeometry>
        </mxCell>
        <mxCell id="Er8-8Sgkyutona7fchdq-45" value="&lt;font style=&quot;font-size: 14px&quot;&gt;&lt;b&gt;Hérite de la classe &lt;font color=&quot;#ff0000&quot; style=&quot;font-size: 14px&quot;&gt;DataAcess&amp;lt;T&amp;gt;&lt;/font&gt;&lt;/b&gt;&lt;/font&gt;" style="rounded=1;whiteSpace=wrap;html=1;sketch=0;strokeColor=#d6b656;fillColor=#fff2cc;" parent="1" vertex="1">
          <mxGeometry x="-232" y="300" width="232" height="40" as="geometry" />
        </mxCell>
        <mxCell id="Er8-8Sgkyutona7fchdq-46" value="" style="endArrow=classic;html=1;" parent="1" edge="1">
          <mxGeometry width="50" height="50" relative="1" as="geometry">
            <mxPoint x="-103" y="341" as="sourcePoint" />
            <mxPoint x="-103" y="370" as="targetPoint" />
          </mxGeometry>
        </mxCell>
        <mxCell id="Er8-8Sgkyutona7fchdq-48" value="&lt;font style=&quot;font-size: 14px&quot;&gt;&lt;b&gt;DataAcess&amp;lt;Client&amp;gt;&lt;/b&gt;&lt;/font&gt;" style="rounded=1;whiteSpace=wrap;html=1;sketch=0;strokeColor=#36393d;fillColor=#cce5ff;" parent="1" vertex="1">
          <mxGeometry x="-174.37" y="370" width="138.75" height="40" as="geometry" />
        </mxCell>
        <mxCell id="Er8-8Sgkyutona7fchdq-49" value="" style="shape=curlyBracket;whiteSpace=wrap;html=1;rounded=1;" parent="1" vertex="1">
          <mxGeometry x="-209" y="370" width="20" height="40" as="geometry" />
        </mxCell>
        <mxCell id="Er8-8Sgkyutona7fchdq-51" value="&lt;font style=&quot;font-size: 14px&quot;&gt;&lt;b&gt;&lt;span style=&quot;color: rgb(255 , 0 , 0)&quot;&gt;&amp;nbsp; &amp;nbsp; &amp;nbsp; &amp;nbsp; &amp;nbsp; &amp;nbsp; &amp;nbsp; &amp;nbsp; &amp;nbsp; &amp;nbsp; &amp;nbsp; &amp;nbsp; &amp;nbsp; &amp;nbsp; &amp;nbsp; &amp;nbsp; &amp;nbsp; &amp;nbsp; &amp;nbsp; &amp;nbsp; &amp;nbsp; &amp;nbsp; &amp;nbsp; &amp;nbsp; Classe&amp;nbsp;&lt;/span&gt;&lt;font color=&quot;#ff0000&quot; style=&quot;font-size: 14px&quot;&gt;Abstraite&lt;/font&gt;&lt;/b&gt;&lt;/font&gt;" style="text;html=1;align=center;verticalAlign=middle;resizable=0;points=[];autosize=1;" parent="1" vertex="1">
          <mxGeometry x="-512" y="380.5" width="306" height="19" as="geometry" />
        </mxCell>
        <mxCell id="Er8-8Sgkyutona7fchdq-55" value="" style="endArrow=classic;html=1;" parent="1" edge="1">
          <mxGeometry width="50" height="50" relative="1" as="geometry">
            <mxPoint x="-104" y="411" as="sourcePoint" />
            <mxPoint x="-104" y="440" as="targetPoint" />
          </mxGeometry>
        </mxCell>
        <mxCell id="Er8-8Sgkyutona7fchdq-56" value="&lt;div style=&quot;text-align: justify ; font-size: 13px&quot;&gt;&lt;span&gt;&lt;font style=&quot;font-size: 13px&quot;&gt;&lt;b&gt;DataAcess Contient les méthodes communes entre tous les services et une méthode abstraite permetttant de récuperer l&#39;URL des classes filles:&lt;/b&gt;&lt;/font&gt;&lt;/span&gt;&lt;/div&gt;&lt;div style=&quot;text-align: justify ; font-size: 13px&quot;&gt;&lt;span&gt;&lt;font style=&quot;font-size: 13px&quot; color=&quot;#ff0000&quot;&gt;&lt;b&gt;--&amp;gt; abstract getRelativeDataUrl()&lt;/b&gt;&lt;/font&gt;&lt;/span&gt;&lt;/div&gt;" style="rounded=1;whiteSpace=wrap;html=1;sketch=0;strokeColor=#d6b656;fillColor=#fff2cc;" parent="1" vertex="1">
          <mxGeometry x="-260" y="440" width="309.99" height="83" as="geometry" />
        </mxCell>
        <mxCell id="Er8-8Sgkyutona7fchdq-60" value="" style="edgeStyle=elbowEdgeStyle;elbow=horizontal;endArrow=classic;html=1;exitX=0;exitY=0.75;exitDx=0;exitDy=0;" parent="1" edge="1">
          <mxGeometry width="50" height="50" relative="1" as="geometry">
            <mxPoint x="-101" y="520" as="sourcePoint" />
            <mxPoint x="-80" y="560" as="targetPoint" />
            <Array as="points">
              <mxPoint x="-101" y="560" />
              <mxPoint x="-90" y="585" />
              <mxPoint x="-120" y="555" />
              <mxPoint x="-260" y="585" />
              <mxPoint x="-210" y="605" />
              <mxPoint x="-160" y="595" />
              <mxPoint x="-110" y="615" />
            </Array>
          </mxGeometry>
        </mxCell>
        <mxCell id="Er8-8Sgkyutona7fchdq-61" value="" style="edgeStyle=elbowEdgeStyle;elbow=horizontal;endArrow=classic;html=1;" parent="1" edge="1">
          <mxGeometry width="50" height="50" relative="1" as="geometry">
            <mxPoint x="-101" y="540" as="sourcePoint" />
            <mxPoint x="-81" y="600" as="targetPoint" />
            <Array as="points">
              <mxPoint x="-101" y="615" />
              <mxPoint x="-91" y="625" />
              <mxPoint x="-121" y="595" />
              <mxPoint x="-261" y="625" />
              <mxPoint x="-211" y="645" />
              <mxPoint x="-161" y="635" />
              <mxPoint x="-111" y="655" />
            </Array>
          </mxGeometry>
        </mxCell>
        <mxCell id="Er8-8Sgkyutona7fchdq-63" value="" style="edgeStyle=elbowEdgeStyle;elbow=horizontal;endArrow=classic;html=1;" parent="1" edge="1">
          <mxGeometry width="50" height="50" relative="1" as="geometry">
            <mxPoint x="-101" y="540" as="sourcePoint" />
            <mxPoint x="-81" y="600" as="targetPoint" />
            <Array as="points">
              <mxPoint x="-101" y="640" />
              <mxPoint x="-91" y="625" />
              <mxPoint x="-121" y="595" />
              <mxPoint x="-261" y="625" />
              <mxPoint x="-211" y="645" />
              <mxPoint x="-161" y="635" />
              <mxPoint x="-111" y="655" />
            </Array>
          </mxGeometry>
        </mxCell>
        <mxCell id="Er8-8Sgkyutona7fchdq-64" value="" style="edgeStyle=elbowEdgeStyle;elbow=horizontal;endArrow=classic;html=1;" parent="1" edge="1">
          <mxGeometry width="50" height="50" relative="1" as="geometry">
            <mxPoint x="-101" y="580" as="sourcePoint" />
            <mxPoint x="-81" y="640" as="targetPoint" />
            <Array as="points">
              <mxPoint x="-101" y="680" />
              <mxPoint x="-91" y="665" />
              <mxPoint x="-121" y="635" />
              <mxPoint x="-261" y="665" />
              <mxPoint x="-211" y="685" />
              <mxPoint x="-161" y="675" />
              <mxPoint x="-111" y="695" />
            </Array>
          </mxGeometry>
        </mxCell>
        <mxCell id="Er8-8Sgkyutona7fchdq-65" value="" style="edgeStyle=elbowEdgeStyle;elbow=horizontal;endArrow=classic;html=1;" parent="1" edge="1">
          <mxGeometry width="50" height="50" relative="1" as="geometry">
            <mxPoint x="-101" y="620" as="sourcePoint" />
            <mxPoint x="-81" y="680" as="targetPoint" />
            <Array as="points">
              <mxPoint x="-101" y="720" />
              <mxPoint x="-91" y="705" />
              <mxPoint x="-121" y="675" />
              <mxPoint x="-261" y="705" />
              <mxPoint x="-211" y="725" />
              <mxPoint x="-161" y="715" />
              <mxPoint x="-111" y="735" />
            </Array>
          </mxGeometry>
        </mxCell>
        <mxCell id="Er8-8Sgkyutona7fchdq-66" value="" style="edgeStyle=elbowEdgeStyle;elbow=horizontal;endArrow=classic;html=1;" parent="1" edge="1">
          <mxGeometry width="50" height="50" relative="1" as="geometry">
            <mxPoint x="-101" y="660" as="sourcePoint" />
            <mxPoint x="-81" y="720" as="targetPoint" />
            <Array as="points">
              <mxPoint x="-101" y="760" />
              <mxPoint x="-91" y="745" />
              <mxPoint x="-121" y="715" />
              <mxPoint x="-261" y="745" />
              <mxPoint x="-211" y="765" />
              <mxPoint x="-161" y="755" />
              <mxPoint x="-111" y="775" />
            </Array>
          </mxGeometry>
        </mxCell>
        <mxCell id="Er8-8Sgkyutona7fchdq-67" value="" style="edgeStyle=elbowEdgeStyle;elbow=horizontal;endArrow=classic;html=1;" parent="1" edge="1">
          <mxGeometry width="50" height="50" relative="1" as="geometry">
            <mxPoint x="-101" y="700" as="sourcePoint" />
            <mxPoint x="-81" y="760" as="targetPoint" />
            <Array as="points">
              <mxPoint x="-101" y="800" />
              <mxPoint x="-91" y="785" />
              <mxPoint x="-121" y="755" />
              <mxPoint x="-261" y="785" />
              <mxPoint x="-211" y="805" />
              <mxPoint x="-161" y="795" />
              <mxPoint x="-111" y="815" />
            </Array>
          </mxGeometry>
        </mxCell>
        <mxCell id="Er8-8Sgkyutona7fchdq-72" value="&lt;font style=&quot;font-size: 14px&quot;&gt;&lt;b&gt;Create &amp;lt;T&amp;gt; :&lt;/b&gt; &lt;b&gt;Méthode permettant de créer un objet de type T&lt;/b&gt;&lt;/font&gt;" style="text;html=1;align=center;verticalAlign=middle;resizable=0;points=[];autosize=1;" parent="1" vertex="1">
          <mxGeometry x="-74" y="547" width="411" height="19" as="geometry" />
        </mxCell>
        <mxCell id="Er8-8Sgkyutona7fchdq-73" value="&lt;font style=&quot;font-size: 14px&quot;&gt;&lt;b&gt;Update &amp;lt;T&amp;gt; : Méthode permettant de mettre à jour un objet de type T&lt;/b&gt;&lt;/font&gt;" style="text;html=1;align=center;verticalAlign=middle;resizable=0;points=[];autosize=1;" parent="1" vertex="1">
          <mxGeometry x="-74" y="587" width="465" height="19" as="geometry" />
        </mxCell>
        <mxCell id="Er8-8Sgkyutona7fchdq-74" value="&lt;font style=&quot;font-size: 14px&quot;&gt;&lt;b&gt;Delete &amp;lt;T&amp;gt; : Méthode permettant de supprimer un objet de type T&lt;/b&gt;&lt;/font&gt;" style="text;html=1;align=center;verticalAlign=middle;resizable=0;points=[];autosize=1;" parent="1" vertex="1">
          <mxGeometry x="-74" y="627" width="443" height="19" as="geometry" />
        </mxCell>
        <mxCell id="Er8-8Sgkyutona7fchdq-75" value="&lt;font style=&quot;font-size: 14px&quot;&gt;&lt;b&gt;GetById &amp;lt;T&amp;gt; : Retourne un objet de type T par son id&lt;/b&gt;&lt;/font&gt;" style="text;html=1;align=center;verticalAlign=middle;resizable=0;points=[];autosize=1;" parent="1" vertex="1">
          <mxGeometry x="-74" y="663" width="361" height="19" as="geometry" />
        </mxCell>
        <mxCell id="Er8-8Sgkyutona7fchdq-76" value="&lt;font style=&quot;font-size: 14px&quot;&gt;&lt;b&gt;GetAll &amp;lt;T&amp;gt; : Retourne tous les objets de type T&lt;/b&gt;&lt;/font&gt;" style="text;html=1;align=center;verticalAlign=middle;resizable=0;points=[];autosize=1;" parent="1" vertex="1">
          <mxGeometry x="-71" y="706" width="321" height="19" as="geometry" />
        </mxCell>
        <mxCell id="Er8-8Sgkyutona7fchdq-77" value="&lt;div style=&quot;text-align: justify&quot;&gt;&lt;b style=&quot;font-size: 14px&quot;&gt;GetDataTable &amp;lt;T&amp;gt; : &lt;/b&gt;&lt;span style=&quot;font-size: 14px&quot;&gt;&lt;b&gt;Retourne les données de la base de données sous forme de pages. Chaque page contient un nombre&lt;/b&gt;&lt;/span&gt;&lt;/div&gt;&lt;font&gt;&lt;div style=&quot;text-align: justify&quot;&gt;&lt;span style=&quot;font-size: 14px&quot;&gt;&lt;b&gt;&amp;nbsp; &amp;nbsp; &amp;nbsp; &amp;nbsp; &amp;nbsp; &amp;nbsp; &amp;nbsp; &amp;nbsp; &amp;nbsp; &amp;nbsp; &amp;nbsp; &amp;nbsp; &amp;nbsp; &amp;nbsp; &amp;nbsp; &amp;nbsp; &amp;nbsp;précis d&#39;éléments&amp;nbsp;et permet des fonctionnalités comme: le filtrage et le trie des données à afficher&lt;/b&gt;&lt;/span&gt;&lt;/div&gt;&lt;/font&gt;" style="text;html=1;align=center;verticalAlign=middle;resizable=0;points=[];autosize=1;" parent="1" vertex="1">
          <mxGeometry x="-74" y="746" width="814" height="34" as="geometry" />
        </mxCell>
        <mxCell id="Er8-8Sgkyutona7fchdq-2" value="&lt;b&gt;&lt;font style=&quot;font-size: 14px&quot;&gt;Role&lt;/font&gt;&lt;/b&gt;" style="rounded=1;whiteSpace=wrap;html=1;fillColor=#dae8fc;strokeColor=#6c8ebf;" parent="1" vertex="1">
          <mxGeometry x="480" y="160" width="80" height="40" as="geometry" />
        </mxCell>
      </root>
    </mxGraphModel>
  </diagram>
</mxfile>
